<svg width="1469" height="1469" viewBox="0 0 1469 1469" fill="none" xmlns="http://www.w3.org/2000/svg">
<circle cx="734.5" cy="734.5" r="734.5" fill="#117EB8"/>
<path fill-rule="evenodd" clip-rule="evenodd" d="M323.999 591.245H500.431V1159H323.999V591.245ZM412.243 309.018C468.657 309.018 514.493 354.861 514.493 411.285C514.493 467.763 468.657 513.624 412.243 513.624C398.647 513.882 385.137 511.426 372.501 506.4C359.866 501.375 348.359 493.88 338.653 484.355C328.947 474.83 321.237 463.465 315.974 450.925C310.711 438.385 308 424.921 308 411.321C308 397.721 310.711 384.258 315.974 371.718C321.237 359.178 328.947 347.813 338.653 338.288C348.359 328.762 359.866 321.268 372.501 316.242C385.137 311.217 398.647 308.761 412.243 309.018ZM611.097 591.227H780.323V668.811H782.67C806.23 624.179 863.781 577.126 949.605 577.126C1128.25 577.126 1161.26 694.722 1161.26 847.599V1159H984.935V882.898C984.935 817.067 983.725 732.368 893.263 732.368C801.463 732.368 787.364 804.085 787.364 878.148V1159H611.079V591.245L611.097 591.227Z" fill="white"/>
</svg>
